<?xml version="1.0" encoding="UTF-8"?>
<svg xmlns="http://www.w3.org/2000/svg" viewBox="0 0 1600 900" preserveAspectRatio="xMidYMid slice">
    <defs>
        <linearGradient id="aether-haze" x1="0" y1="0" x2="0" y2="1">
            <stop offset="0%" stop-color="#C89828" stop-opacity="0"/>
            <stop offset="40%" stop-color="#C89828" stop-opacity="0.05"/>
            <stop offset="100%" stop-color="#C89828" stop-opacity="0.15"/>
        </linearGradient>
        <linearGradient id="island-fill" x1="0" y1="0" x2="0" y2="1">
            <stop offset="0%" stop-color="#5AAA7C"/>
            <stop offset="28%" stop-color="#4A9A6C"/>
            <stop offset="34%" stop-color="#C8A860"/>
            <stop offset="42%" stop-color="#8B7355"/>
            <stop offset="65%" stop-color="#6B5540"/>
            <stop offset="80%" stop-color="#B0AAB8"/>
            <stop offset="100%" stop-color="#908898"/>
        </linearGradient>
        <linearGradient id="island-far" x1="0" y1="0" x2="0" y2="1">
            <stop offset="0%" stop-color="#6AAA80"/>
            <stop offset="35%" stop-color="#8B7355"/>
            <stop offset="70%" stop-color="#A8A0B0"/>
            <stop offset="100%" stop-color="#908898"/>
        </linearGradient>
    </defs>

    <rect x="0" y="550" width="1600" height="350" fill="url(#aether-haze)"/>

    <rect x="250" y="280" width="70" height="14" rx="2" fill="#5888C8" opacity="0.4"/>
    <rect x="275" y="270" width="45" height="12" rx="2" fill="#6898D8" opacity="0.35"/>
    <rect x="560" y="420" width="55" height="12" rx="2" fill="#5080B8" opacity="0.32"/>
    <rect x="580" y="412" width="35" height="10" rx="2" fill="#6090C8" opacity="0.28"/>
    <rect x="880" y="310" width="58" height="13" rx="2" fill="#D0D8E8" opacity="0.45"/>
    <rect x="900" y="302" width="38" height="10" rx="2" fill="#E0E8F0" opacity="0.4"/>
    <rect x="1100" y="450" width="65" height="14" rx="2" fill="#D8E0E8" opacity="0.38"/>
    <rect x="1320" y="190" width="55" height="12" rx="2" fill="#D4A838" opacity="0.3"/>
    <rect x="1340" y="182" width="35" height="9" rx="2" fill="#E0B840" opacity="0.25"/>
    <rect x="400" y="200" width="45" height="11" rx="2" fill="#C89828" opacity="0.25"/>

    <g opacity="0.45">
        <path d="M1020,555 Q1060,510 1150,505 Q1250,500 1330,525 Q1370,540 1360,568 Q1340,600 1240,610 Q1130,608 1040,585 Z" fill="url(#island-fill)"/>
        <path d="M1340,555 Q1365,548 1370,540 Q1360,568 1340,575 Z" fill="#D8C878" opacity="0.5"/>
        <line x1="1080" y1="520" x2="1080" y2="488" stroke="#7A6A58" stroke-width="3.5" stroke-linecap="round"/>
        <ellipse cx="1080" cy="480" rx="14" ry="11" fill="#4A8868" opacity="0.85"/>
        <ellipse cx="1080" cy="478" rx="10" ry="8" fill="#58A078" opacity="0.5"/>
        <line x1="1130" y1="512" x2="1130" y2="475" stroke="#7A6A58" stroke-width="4" stroke-linecap="round"/>
        <ellipse cx="1130" cy="467" rx="18" ry="13" fill="#3D7858" opacity="0.8"/>
        <ellipse cx="1130" cy="465" rx="13" ry="10" fill="#4D8868" opacity="0.5"/>
        <circle cx="1210" cy="450" r="30" fill="#E0B840" opacity="0.08"/>
        <line x1="1210" y1="508" x2="1210" y2="462" stroke="#7A6A58" stroke-width="5" stroke-linecap="round"/>
        <ellipse cx="1210" cy="450" rx="24" ry="18" fill="#C89828" opacity="0.85"/>
        <ellipse cx="1210" cy="447" rx="18" ry="14" fill="#E0B840" opacity="0.7"/>
        <ellipse cx="1210" cy="445" rx="12" ry="10" fill="#F0D060" opacity="0.45"/>
        <line x1="1280" y1="522" x2="1280" y2="498" stroke="#7A6A58" stroke-width="3" stroke-linecap="round"/>
        <ellipse cx="1280" cy="492" rx="12" ry="9" fill="#4A8868" opacity="0.75"/>
        <line x1="1310" y1="530" x2="1310" y2="510" stroke="#7A6A58" stroke-width="2.5" stroke-linecap="round"/>
        <ellipse cx="1310" cy="505" rx="9" ry="7" fill="#58A078" opacity="0.65"/>
        <rect x="1160" y="508" width="35" height="16" rx="1" fill="#B0AAB8" opacity="0.45"/>
        <rect x="1155" y="505" width="45" height="5" rx="1" fill="#C0BAC8" opacity="0.4"/>
        <line x1="1163" y1="524" x2="1163" y2="512" stroke="#A8A2B0" stroke-width="2" opacity="0.35"/>
        <line x1="1175" y1="524" x2="1175" y2="510" stroke="#A8A2B0" stroke-width="2" opacity="0.4"/>
        <line x1="1187" y1="524" x2="1187" y2="511" stroke="#A8A2B0" stroke-width="2" opacity="0.35"/>
        <circle cx="1100" cy="522" r="3" fill="#4A8868" opacity="0.5"/>
        <circle cx="1098" cy="520" r="1.5" fill="#D04040" opacity="0.4"/>
        <circle cx="1250" cy="527" r="3.5" fill="#4A8868" opacity="0.45"/>
        <circle cx="1248" cy="525" r="1.5" fill="#4040D0" opacity="0.35"/>
    </g>

    <g opacity="0.38">
        <path d="M100,635 Q130,590 210,585 Q290,582 340,605 Q365,620 355,645 Q330,670 220,674 Q120,668 100,650 Z" fill="url(#island-fill)"/>
        <path d="M340,620 Q360,612 365,605 Q355,645 335,655 Z" fill="#D8C878" opacity="0.45"/>
        <line x1="155" y1="598" x2="155" y2="568" stroke="#7A6A58" stroke-width="3" stroke-linecap="round"/>
        <ellipse cx="155" cy="561" rx="13" ry="10" fill="#4A8868" opacity="0.85"/>
        <line x1="200" y1="592" x2="200" y2="555" stroke="#7A6A58" stroke-width="4" stroke-linecap="round"/>
        <ellipse cx="200" cy="548" rx="17" ry="13" fill="#408060" opacity="0.8"/>
        <ellipse cx="200" cy="546" rx="12" ry="9" fill="#50906A" opacity="0.5"/>
        <line x1="245" y1="590" x2="245" y2="565" stroke="#7A6A58" stroke-width="3" stroke-linecap="round"/>
        <ellipse cx="245" cy="559" rx="11" ry="9" fill="#4A8868" opacity="0.75"/>
        <line x1="285" y1="598" x2="285" y2="575" stroke="#7A6A58" stroke-width="2.5" stroke-linecap="round"/>
        <ellipse cx="285" cy="570" rx="9" ry="7" fill="#58A078" opacity="0.7"/>
        <circle cx="170" cy="598" r="2" fill="#E0E8F0" opacity="0.4"/>
        <circle cx="230" cy="594" r="2" fill="#B0B8F0" opacity="0.35"/>
        <circle cx="310" cy="605" r="1.5" fill="#E0D0F0" opacity="0.3"/>
    </g>

    <g opacity="0.3">
        <path d="M680,685 Q710,655 775,648 Q845,645 890,662 Q910,675 900,695 Q875,718 785,722 Q700,718 685,700 Z" fill="url(#island-fill)"/>
        <line x1="730" y1="660" x2="730" y2="635" stroke="#7A6A58" stroke-width="3" stroke-linecap="round"/>
        <ellipse cx="730" cy="628" rx="12" ry="10" fill="#4A8868" opacity="0.8"/>
        <line x1="780" y1="654" x2="780" y2="622" stroke="#7A6A58" stroke-width="3.5" stroke-linecap="round"/>
        <ellipse cx="780" cy="615" rx="15" ry="11" fill="#408060" opacity="0.75"/>
        <line x1="835" y1="658" x2="835" y2="638" stroke="#7A6A58" stroke-width="3" stroke-linecap="round"/>
        <ellipse cx="835" cy="632" rx="12" ry="9" fill="#4A8868" opacity="0.7"/>
        <ellipse cx="835" cy="630" rx="9" ry="7" fill="#58A078" opacity="0.45"/>
    </g>

    <g opacity="0.22">
        <ellipse cx="470" cy="400" rx="60" ry="18" fill="url(#island-far)"/>
        <line x1="455" y1="384" x2="455" y2="368" stroke="#7A6A58" stroke-width="2" stroke-linecap="round"/>
        <ellipse cx="455" cy="363" rx="8" ry="6" fill="#4A8868" opacity="0.7"/>
        <line x1="480" y1="383" x2="480" y2="370" stroke="#7A6A58" stroke-width="2.5" stroke-linecap="round"/>
        <ellipse cx="480" cy="365" rx="10" ry="7" fill="#408060" opacity="0.65"/>
    </g>

    <ellipse cx="1430" cy="360" rx="38" ry="11" fill="url(#island-far)" opacity="0.14"/>
    <line x1="1425" y1="350" x2="1425" y2="340" stroke="#7A6A58" stroke-width="1.5" opacity="0.12"/>
    <ellipse cx="1425" cy="337" rx="5" ry="4" fill="#4A8868" opacity="0.12"/>

    <g opacity="0.2">
        <circle cx="200" cy="380" r="28" fill="url(#island-far)"/>
        <circle cx="180" cy="395" r="12" fill="url(#island-far)" opacity="0.7"/>
        <circle cx="222" cy="390" r="10" fill="url(#island-far)" opacity="0.6"/>
        <line x1="190" y1="355" x2="190" y2="340" stroke="#7A6A58" stroke-width="2" stroke-linecap="round"/>
        <ellipse cx="190" cy="334" rx="10" ry="8" fill="#DAA520" opacity="0.7"/>
        <ellipse cx="190" cy="332" rx="7" ry="6" fill="#FFD700" opacity="0.5"/>
        <line x1="210" y1="356" x2="210" y2="344" stroke="#7A6A58" stroke-width="2" stroke-linecap="round"/>
        <ellipse cx="210" cy="339" rx="8" ry="6" fill="#DAA520" opacity="0.6"/>
        <ellipse cx="215" cy="378" rx="4" ry="3" fill="#3A3025" opacity="0.4"/>
    </g>

    <ellipse cx="1200" cy="620" rx="120" ry="12" fill="#FFFFFF" opacity="0.15"/>
    <ellipse cx="1180" cy="628" rx="90" ry="10" fill="#FFFFFF" opacity="0.12"/>
    <ellipse cx="220" cy="685" rx="100" ry="10" fill="#FFFFFF" opacity="0.13"/>
    <ellipse cx="240" cy="692" rx="70" ry="8" fill="#FFFFFF" opacity="0.1"/>
    <ellipse cx="790" cy="730" rx="85" ry="9" fill="#FFFFFF" opacity="0.12"/>
    <ellipse cx="500" cy="550" rx="60" ry="8" fill="#FFFFFF" opacity="0.1"/>
    <ellipse cx="1000" cy="500" rx="55" ry="7" fill="#FFFFFF" opacity="0.08"/>

    <g opacity="0.25" transform="translate(380,290)">
        <path d="M0,0 Q3,-5 8,-8 Q13,-6 16,-2 Q20,-8 25,-5 Q22,0 18,2 Q13,4 8,2 Q3,3 0,0 Z" fill="#60A8D8"/>
        <circle cx="26" cy="-4" r="1.5" fill="#4890C0"/>
        <path d="M-1,1 Q-5,4 -8,2" stroke="#60A8D8" stroke-width="1" fill="none" opacity="0.6"/>
    </g>
    <g opacity="0.18" transform="translate(1080,260)">
        <path d="M0,0 Q2,-4 6,-6 Q10,-4 12,-1 Q15,-6 18,-4 Q16,0 13,1 Q10,3 6,1 Q2,2 0,0 Z" fill="#D89030"/>
        <circle cx="19" cy="-3" r="1" fill="#C08020"/>
    </g>
    <g opacity="0.15" transform="translate(700,320)">
        <ellipse cx="0" cy="0" rx="6" ry="4" fill="#E0A8A8"/>
        <path d="M-3,-2 Q-10,-9 -6,-12 Q-2,-7 0,-3 Z" fill="#E8C0C0" opacity="0.7"/>
        <path d="M3,-2 Q10,-9 6,-12 Q2,-7 0,-3 Z" fill="#E8C0C0" opacity="0.7"/>
        <ellipse cx="6" cy="0.5" rx="2" ry="1.5" fill="#D89898"/>
    </g>

    <g opacity="0.18" transform="translate(1250,370)">
        <rect x="-14" y="-10" width="28" height="20" rx="3" fill="#D0D8E8"/>
        <ellipse cx="0" cy="-12" rx="10" ry="5" fill="#E0E8F0"/>
        <circle cx="-5" cy="-2" r="1.5" fill="#6080A0" opacity="0.6"/>
        <circle cx="5" cy="-2" r="1.5" fill="#6080A0" opacity="0.6"/>
        <ellipse cx="0" cy="3" rx="3" ry="2" fill="#6080A0" opacity="0.3"/>
        <line x1="-8" y1="10" x2="-8" y2="25" stroke="#D0D8E8" stroke-width="1.5" opacity="0.5"/>
        <line x1="0" y1="10" x2="0" y2="28" stroke="#D0D8E8" stroke-width="1.5" opacity="0.45"/>
        <line x1="8" y1="10" x2="8" y2="23" stroke="#D0D8E8" stroke-width="1.5" opacity="0.4"/>
    </g>

    <g opacity="0.16" transform="translate(550,350)">
        <ellipse cx="0" cy="0" rx="10" ry="9" fill="#E8F0F8"/>
        <ellipse cx="-3" cy="-3" rx="6" ry="5" fill="#F0F4F8" opacity="0.7"/>
        <ellipse cx="10" cy="2" rx="4" ry="3.5" fill="#C8C0C0"/>
        <circle cx="12" cy="1" r="0.8" fill="#404040" opacity="0.5"/>
        <line x1="-4" y1="8" x2="-4" y2="13" stroke="#C8C0C0" stroke-width="1.5" opacity="0.4"/>
        <line x1="4" y1="8" x2="4" y2="13" stroke="#C8C0C0" stroke-width="1.5" opacity="0.4"/>
    </g>
</svg>
